<svg width="351" height="109" viewBox="0 0 351 109" fill="none" xmlns="http://www.w3.org/2000/svg">
<g filter="url(#filter0_d_101_2)">
<rect x="49" y="20" width="73" height="69" rx="15" fill="#2CB1BC"/>
<path d="M72.6065 69V39.9091H78.7571V51.9119H91.2429V39.9091H97.3793V69H91.2429V56.983H78.7571V69H72.6065Z" fill="white"/>
<path d="M145.067 69V39.9091H151.218V51.9119H163.704V39.9091H169.84V69H163.704V56.983H151.218V69H145.067ZM188.789 59.7102V47.1818H194.84V69H189.031V65.0369H188.803C188.311 66.3153 187.492 67.3428 186.346 68.1193C185.21 68.8958 183.822 69.2841 182.184 69.2841C180.726 69.2841 179.442 68.9527 178.335 68.2898C177.227 67.6269 176.36 66.6847 175.735 65.4631C175.12 64.2415 174.807 62.7784 174.798 61.0739V47.1818H180.849V59.9943C180.858 61.2822 181.204 62.3002 181.886 63.0483C182.567 63.7964 183.481 64.1705 184.627 64.1705C185.356 64.1705 186.038 64.0047 186.673 63.6733C187.307 63.3324 187.818 62.8305 188.207 62.1676C188.604 61.5047 188.799 60.6856 188.789 59.7102ZM205.732 56.3864V69H199.68V47.1818H205.447V51.0312H205.703C206.186 49.7623 206.996 48.7585 208.132 48.0199C209.268 47.2718 210.646 46.8977 212.266 46.8977C213.781 46.8977 215.102 47.2292 216.229 47.892C217.356 48.5549 218.232 49.5019 218.857 50.733C219.482 51.9545 219.794 53.4129 219.794 55.108V69H213.743V56.1875C213.752 54.8523 213.411 53.8106 212.72 53.0625C212.029 52.3049 211.077 51.9261 209.865 51.9261C209.051 51.9261 208.331 52.1013 207.706 52.4517C207.09 52.8021 206.607 53.3134 206.257 53.9858C205.916 54.6487 205.741 55.4489 205.732 56.3864ZM236.168 47.1818V51.7273H223.029V47.1818H236.168ZM226.012 41.9545H232.063V62.2955C232.063 62.8542 232.148 63.2898 232.319 63.6023C232.489 63.9053 232.726 64.1184 233.029 64.2415C233.342 64.3646 233.701 64.4261 234.109 64.4261C234.393 64.4261 234.677 64.4025 234.961 64.3551C235.245 64.2983 235.463 64.2557 235.614 64.2273L236.566 68.7301C236.263 68.8248 235.837 68.9337 235.288 69.0568C234.738 69.1894 234.071 69.2699 233.285 69.2983C231.826 69.3551 230.548 69.161 229.45 68.7159C228.361 68.2708 227.513 67.5795 226.907 66.642C226.301 65.7045 226.003 64.5208 226.012 63.0909V41.9545ZM240.11 69V47.1818H246.161V69H240.11ZM243.15 44.3693C242.25 44.3693 241.478 44.071 240.835 43.4744C240.2 42.8684 239.883 42.1439 239.883 41.3011C239.883 40.4678 240.2 39.7528 240.835 39.1562C241.478 38.5502 242.25 38.2472 243.15 38.2472C244.049 38.2472 244.817 38.5502 245.451 39.1562C246.095 39.7528 246.417 40.4678 246.417 41.3011C246.417 42.1439 246.095 42.8684 245.451 43.4744C244.817 44.071 244.049 44.3693 243.15 44.3693ZM262.741 47.1818V51.7273H249.276V47.1818H262.741ZM252.358 69V45.6051C252.358 44.0237 252.666 42.7121 253.281 41.6705C253.906 40.6288 254.759 39.8475 255.838 39.3267C256.918 38.8059 258.144 38.5455 259.517 38.5455C260.445 38.5455 261.293 38.6165 262.06 38.7585C262.836 38.9006 263.414 39.0284 263.793 39.142L262.713 43.6875C262.476 43.6117 262.183 43.5407 261.832 43.4744C261.491 43.4081 261.141 43.375 260.781 43.375C259.891 43.375 259.271 43.5833 258.92 44C258.57 44.4072 258.395 44.9801 258.395 45.7188V69H252.358ZM270.174 77.1818C269.407 77.1818 268.687 77.1203 268.015 76.9972C267.352 76.8835 266.803 76.7367 266.367 76.5568L267.731 72.0398C268.441 72.2576 269.08 72.3759 269.648 72.3949C270.226 72.4138 270.723 72.2813 271.14 71.9972C271.566 71.7131 271.912 71.2301 272.177 70.5483L272.532 69.625L264.705 47.1818H271.069L275.586 63.2045H275.813L280.373 47.1818H286.779L278.299 71.358C277.892 72.5322 277.338 73.5549 276.637 74.4261C275.946 75.3068 275.07 75.9839 274.009 76.4574C272.949 76.9403 271.67 77.1818 270.174 77.1818Z" fill="#2CB1BC"/>
</g>
<defs>
<filter id="filter0_d_101_2" x="-4" y="0" width="359" height="117" filterUnits="userSpaceOnUse" color-interpolation-filters="sRGB">
<feFlood flood-opacity="0" result="BackgroundImageFix"/>
<feColorMatrix in="SourceAlpha" type="matrix" values="0 0 0 0 0 0 0 0 0 0 0 0 0 0 0 0 0 0 127 0" result="hardAlpha"/>
<feOffset dy="4"/>
<feGaussianBlur stdDeviation="2"/>
<feComposite in2="hardAlpha" operator="out"/>
<feColorMatrix type="matrix" values="0 0 0 0 0 0 0 0 0 0 0 0 0 0 0 0 0 0 0.25 0"/>
<feBlend mode="normal" in2="BackgroundImageFix" result="effect1_dropShadow_101_2"/>
<feBlend mode="normal" in="SourceGraphic" in2="effect1_dropShadow_101_2" result="shape"/>
</filter>
</defs>
</svg>
